<svg viewBox="0 0 1300 640" xmlns="http://www.w3.org/2000/svg" style="background:#0D1117;font-family:system-ui,sans-serif;">
  <defs>
    <marker id="arr" markerWidth="7" markerHeight="5" refX="6" refY="2.5" orient="auto">
      <polygon points="0 0, 7 2.5, 0 5" fill="#484F58"/>
    </marker>
    <marker id="arr-mem" markerWidth="6" markerHeight="5" refX="5" refY="2.5" orient="auto">
      <polygon points="0 0, 6 2.5, 0 5" fill="#CA8A04" fill-opacity="0.6"/>
    </marker>
  </defs>

  <!-- INGESTION SECTION -->
  <rect x="16" y="14" width="1268" height="100" rx="8" fill="#0D1F0F" stroke="#2EA043" stroke-width="1" stroke-opacity="0.5"/>
  <text x="34" y="32" fill="#3FB950" font-size="9" font-family="monospace" font-weight="500" letter-spacing="1.5">DOCUMENT INGESTION PIPELINE</text>
  <rect x="36" y="46" width="100" height="34" rx="5" fill="#0A3622" stroke="#2EA043" stroke-width="1.5"/>
  <text x="86" y="68" fill="#3FB950" font-size="11" font-weight="500" text-anchor="middle">Webhook</text>
  <line x1="137" y1="63" x2="168" y2="63" stroke="#484F58" stroke-width="1.5" marker-end="url(#arr)"/>
  <rect x="169" y="46" width="128" height="34" rx="5" fill="#0A3622" stroke="#2EA043" stroke-width="1.5"/>
  <text x="233" y="60" fill="#3FB950" font-size="9.5" font-weight="500" text-anchor="middle">Binary Input</text>
  <text x="233" y="73" fill="#3FB950" font-size="9.5" font-weight="500" text-anchor="middle">Loader</text>
  <line x1="298" y1="63" x2="329" y2="63" stroke="#484F58" stroke-width="1.5" marker-end="url(#arr)"/>
  <rect x="330" y="46" width="118" height="34" rx="5" fill="#0A3622" stroke="#2EA043" stroke-width="1.5"/>
  <text x="389" y="60" fill="#3FB950" font-size="9.5" font-weight="500" text-anchor="middle">Token</text>
  <text x="389" y="73" fill="#3FB950" font-size="9.5" font-weight="500" text-anchor="middle">Splitter</text>
  <line x1="449" y1="63" x2="480" y2="63" stroke="#484F58" stroke-width="1.5" marker-end="url(#arr)"/>
  <rect x="481" y="46" width="130" height="34" rx="5" fill="#0A3622" stroke="#2EA043" stroke-width="1.5"/>
  <text x="546" y="60" fill="#3FB950" font-size="9.5" font-weight="500" text-anchor="middle">Embeddings</text>
  <text x="546" y="73" fill="#3FB950" font-size="9.5" font-weight="500" text-anchor="middle">OpenAI</text>
  <line x1="612" y1="63" x2="643" y2="63" stroke="#484F58" stroke-width="1.5" marker-end="url(#arr)"/>
  <rect x="644" y="46" width="148" height="34" rx="5" fill="#0A3622" stroke="#2EA043" stroke-width="1.5"/>
  <text x="718" y="60" fill="#3FB950" font-size="9.5" font-weight="500" text-anchor="middle">Simple Vector</text>
  <text x="718" y="73" fill="#3FB950" font-size="9.5" font-weight="500" text-anchor="middle">Store (insert)</text>
  <line x1="793" y1="63" x2="824" y2="63" stroke="#484F58" stroke-width="1.5" marker-end="url(#arr)"/>
  <rect x="825" y="46" width="128" height="34" rx="5" fill="#0A3622" stroke="#2EA043" stroke-width="1.5"/>
  <text x="889" y="60" fill="#3FB950" font-size="9.5" font-weight="500" text-anchor="middle">Respond to</text>
  <text x="889" y="73" fill="#3FB950" font-size="9.5" font-weight="500" text-anchor="middle">Webhook</text>

  <!-- CHAT SECTION -->
  <rect x="16" y="126" width="1268" height="470" rx="8" fill="#0C1015" stroke="#1F6FEB" stroke-width="1" stroke-opacity="0.4"/>
  <text x="34" y="144" fill="#58A6FF" font-size="9" font-family="monospace" font-weight="500" letter-spacing="1.5">CONTRACT CHAT PIPELINE</text>
  <rect x="36" y="270" width="100" height="36" rx="5" fill="#0C1929" stroke="#1F6FEB" stroke-width="1.5"/>
  <text x="86" y="293" fill="#58A6FF" font-size="11" font-weight="500" text-anchor="middle">Webhook 1</text>
  <line x1="137" y1="288" x2="168" y2="288" stroke="#484F58" stroke-width="1.5" marker-end="url(#arr)"/>
  <rect x="169" y="270" width="115" height="36" rx="5" fill="#0C1929" stroke="#1F6FEB" stroke-width="2"/>
  <text x="226" y="286" fill="#58A6FF" font-size="10" font-weight="600" text-anchor="middle">Intent</text>
  <text x="226" y="300" fill="#58A6FF" font-size="10" font-weight="600" text-anchor="middle">Router</text>
  <line x1="285" y1="288" x2="316" y2="288" stroke="#484F58" stroke-width="1.5"/>
  <line x1="316" y1="210" x2="316" y2="370" stroke="#484F58" stroke-width="1.5"/>
  <text x="322" y="204" fill="#7D8590" font-size="8.5" font-style="italic">general_question</text>
  <line x1="316" y1="210" x2="347" y2="210" stroke="#484F58" stroke-width="1.5" marker-end="url(#arr)"/>
  <rect x="348" y="192" width="143" height="36" rx="5" fill="#0C2D48" stroke="#0EA5E9" stroke-width="1.5"/>
  <text x="419" y="208" fill="#38BDF8" font-size="10" font-weight="500" text-anchor="middle">Direct Response</text>
  <text x="419" y="221" fill="#38BDF8" font-size="10" font-weight="500" text-anchor="middle">Agent</text>
  <line x1="492" y1="210" x2="523" y2="210" stroke="#484F58" stroke-width="1.5" marker-end="url(#arr)"/>
  <rect x="524" y="192" width="148" height="36" rx="5" fill="#0C2D48" stroke="#0EA5E9" stroke-width="1.5" stroke-dasharray="5,3"/>
  <text x="598" y="208" fill="#38BDF8" font-size="9.5" font-weight="500" text-anchor="middle">generic_question</text>
  <text x="598" y="221" fill="#38BDF8" font-size="9.5" font-weight="500" text-anchor="middle">_agent  (tool)</text>
  <line x1="673" y1="210" x2="704" y2="210" stroke="#484F58" stroke-width="1.5" marker-end="url(#arr)"/>
  <rect x="705" y="192" width="148" height="36" rx="5" fill="#1A1200" stroke="#CA8A04" stroke-width="1.5"/>
  <text x="779" y="208" fill="#FBBF24" font-size="9" font-family="monospace" font-weight="500" text-anchor="middle">Find documents</text>
  <text x="779" y="221" fill="#FBBF24" font-size="9" font-family="monospace" font-weight="500" text-anchor="middle">in MongoDB</text>
  <line x1="854" y1="210" x2="885" y2="210" stroke="#484F58" stroke-width="1.5" marker-end="url(#arr)"/>
  <rect x="886" y="192" width="128" height="36" rx="5" fill="#0C2D48" stroke="#0EA5E9" stroke-width="1.5"/>
  <text x="950" y="208" fill="#38BDF8" font-size="9.5" font-weight="500" text-anchor="middle">Respond to</text>
  <text x="950" y="221" fill="#38BDF8" font-size="9.5" font-weight="500" text-anchor="middle">Webhook 1</text>
  <text x="322" y="365" fill="#7D8590" font-size="8.5" font-style="italic">contract_question</text>
  <line x1="316" y1="370" x2="347" y2="370" stroke="#484F58" stroke-width="1.5" marker-end="url(#arr)"/>
  <rect x="348" y="352" width="143" height="36" rx="5" fill="#1C0D2E" stroke="#8B5CF6" stroke-width="1.5"/>
  <text x="419" y="368" fill="#A78BFA" font-size="9.5" font-weight="500" text-anchor="middle">AI Node — Query</text>
  <text x="419" y="381" fill="#A78BFA" font-size="9.5" font-weight="500" text-anchor="middle">Rewriter</text>
  <line x1="492" y1="370" x2="523" y2="370" stroke="#484F58" stroke-width="1.5" marker-end="url(#arr)"/>
  <rect x="524" y="352" width="152" height="36" rx="5" fill="#1C0D2E" stroke="#8B5CF6" stroke-width="2"/>
  <text x="600" y="368" fill="#A78BFA" font-size="10" font-weight="600" text-anchor="middle">Contract</text>
  <text x="600" y="381" fill="#A78BFA" font-size="10" font-weight="600" text-anchor="middle">Orchestrator</text>
  <line x1="677" y1="370" x2="716" y2="370" stroke="#484F58" stroke-width="1.5"/>
  <line x1="716" y1="308" x2="716" y2="432" stroke="#484F58" stroke-width="1.5"/>
  <line x1="716" y1="308" x2="747" y2="308" stroke="#484F58" stroke-width="1.5" marker-end="url(#arr)"/>
  <rect x="748" y="290" width="132" height="36" rx="5" fill="#1C0D2E" stroke="#8B5CF6" stroke-width="1.5" stroke-dasharray="5,3"/>
  <text x="814" y="306" fill="#A78BFA" font-size="10" font-weight="500" text-anchor="middle">contract_agent</text>
  <text x="814" y="319" fill="#A78BFA" font-size="9" font-weight="400" text-anchor="middle">(tool)</text>
  <line x1="881" y1="308" x2="912" y2="308" stroke="#484F58" stroke-width="1.5" marker-end="url(#arr)"/>
  <rect x="913" y="290" width="148" height="36" rx="5" fill="#0A3622" stroke="#2EA043" stroke-width="1.5"/>
  <text x="987" y="306" fill="#3FB950" font-size="9.5" font-weight="500" text-anchor="middle">Simple Vector</text>
  <text x="987" y="319" fill="#3FB950" font-size="9.5" font-weight="500" text-anchor="middle">Store 1 (retrieve)</text>
  <line x1="716" y1="432" x2="747" y2="432" stroke="#484F58" stroke-width="1.5" marker-end="url(#arr)"/>
  <rect x="748" y="414" width="132" height="36" rx="5" fill="#1C0D2E" stroke="#8B5CF6" stroke-width="1.5" stroke-dasharray="5,3"/>
  <text x="814" y="430" fill="#A78BFA" font-size="10" font-weight="500" text-anchor="middle">risk_agent</text>
  <text x="814" y="443" fill="#A78BFA" font-size="9" font-weight="400" text-anchor="middle">(tool)</text>
  <line x1="881" y1="432" x2="912" y2="432" stroke="#484F58" stroke-width="1.5" marker-end="url(#arr)"/>
  <rect x="913" y="414" width="148" height="36" rx="5" fill="#001E3C" stroke="#2563EB" stroke-width="1.5"/>
  <text x="987" y="430" fill="#60A5FA" font-size="10" font-weight="500" text-anchor="middle">Snowflake</text>
  <text x="987" y="443" fill="#60A5FA" font-size="9" font-family="monospace" font-weight="400" text-anchor="middle">Execute Query</text>
  <line x1="1062" y1="308" x2="1097" y2="308" stroke="#484F58" stroke-width="1.5"/>
  <line x1="1062" y1="432" x2="1097" y2="432" stroke="#484F58" stroke-width="1.5"/>
  <line x1="1097" y1="308" x2="1097" y2="432" stroke="#484F58" stroke-width="1.5"/>
  <line x1="1097" y1="370" x2="1128" y2="370" stroke="#484F58" stroke-width="1.5" marker-end="url(#arr)"/>
  <rect x="1129" y="352" width="128" height="36" rx="5" fill="#1C0D2E" stroke="#8B5CF6" stroke-width="1.5"/>
  <text x="1193" y="368" fill="#A78BFA" font-size="9.5" font-weight="500" text-anchor="middle">Respond to</text>
  <text x="1193" y="381" fill="#A78BFA" font-size="9.5" font-weight="500" text-anchor="middle">Webhook 2</text>
  <text x="36" y="510" fill="#7D8590" font-size="8" font-style="italic">dashed border = sub-agent tool</text>

  <!-- SHARED RESOURCES -->
  <rect x="16" y="518" width="1268" height="60" rx="8" fill="#1A1200" stroke="#CA8A04" stroke-width="1" stroke-dasharray="6,3" stroke-opacity="0.7"/>
  <text x="34" y="535" fill="#E3B341" font-size="8.5" font-family="monospace" font-weight="500" letter-spacing="1.5">SHARED BY ALL AGENTS</text>
  <rect x="180" y="528" width="158" height="38" rx="5" fill="#1A1200" stroke="#CA8A04" stroke-width="1.5"/>
  <text x="259" y="543" fill="#E3B341" font-size="10" font-weight="600" text-anchor="middle">OpenAI Chat Model</text>
  <text x="259" y="557" fill="#92400E" font-size="8.5" font-family="monospace" font-weight="500" text-anchor="middle">gpt-5-mini · 7 connections</text>
  <rect x="360" y="528" width="175" height="38" rx="5" fill="#1A1200" stroke="#CA8A04" stroke-width="1.5"/>
  <text x="447" y="543" fill="#E3B341" font-size="10" font-weight="600" text-anchor="middle">Simple Memory</text>
  <text x="447" y="557" fill="#92400E" font-size="8.5" font-family="monospace" font-weight="500" text-anchor="middle">session key: "hii" · 5 agents</text>
  <line x1="259" y1="527" x2="259" y2="505" stroke="#CA8A04" stroke-width="1" stroke-dasharray="4,3" stroke-opacity="0.5" marker-end="url(#arr-mem)"/>
  <line x1="447" y1="527" x2="447" y2="505" stroke="#CA8A04" stroke-width="1" stroke-dasharray="4,3" stroke-opacity="0.5" marker-end="url(#arr-mem)"/>
  <text x="560" y="540" fill="#7D8590" font-size="8.5">OpenAI connects to all 7 AI agents (Intent Router, Direct Response, generic_question_agent, Query Rewriter, Contract Orchestrator, contract_agent, risk_agent)</text>
  <text x="560" y="556" fill="#7D8590" font-size="8.5">Memory connects to 5 agents: Direct Response, generic_question_agent, Contract Orchestrator, contract_agent, risk_agent</text>
</svg>
